<?xml version="1.0" standalone="no"?>
<!DOCTYPE svg PUBLIC "-//W3C//DTD SVG 20010904//EN"
 "http://www.w3.org/TR/2001/REC-SVG-20010904/DTD/svg10.dtd">
<svg version="1.0" xmlns="http://www.w3.org/2000/svg"
 width="326.000000pt" height="326.000000pt" viewBox="0 0 326.000000 326.000000"
 preserveAspectRatio="xMidYMid meet">
<metadata>
Created by potrace 1.11, written by Peter Selinger 2001-2013
</metadata>
<g transform="translate(0.000000,326.000000) scale(0.100000,-0.100000)"
fill="#000000" stroke="none">
<path d="M1047 2096 c-112 -41 -177 -131 -181 -251 -3 -65 12 -116 56 -188
l41 -68 -24 -17 c-51 -35 -112 -98 -137 -141 -58 -99 -24 -268 68 -341 67 -53
126 -73 227 -78 102 -5 156 5 245 45 l57 25 25 -29 25 -30 121 0 c66 0 120 2
120 4 0 3 -28 37 -62 77 -34 39 -68 78 -76 88 -11 14 -10 23 13 69 37 73 54
132 62 217 l6 73 -93 -3 -93 -3 -4 -40 c-5 -48 -19 -104 -33 -125 -8 -13 -11
-13 -22 2 -7 9 -47 56 -88 103 l-74 87 29 25 c17 13 51 42 78 64 147 124 128
335 -38 422 -51 27 -192 34 -248 13z m180 -191 c33 -38 31 -97 -4 -133 -33
-33 -87 -72 -100 -72 -18 0 -63 97 -63 135 0 46 13 71 48 89 40 21 92 13 119
-19z m-67 -546 c47 -55 93 -109 102 -118 16 -18 15 -20 -22 -36 -48 -22 -136
-27 -170 -10 -47 24 -73 61 -77 112 -3 26 -1 57 4 69 11 29 56 84 68 83 6 0
48 -45 95 -100z"/>
<path d="M326 2092 c-3 -3 -6 -245 -6 -538 l0 -532 110 0 c95 0 110 2 111 16
1 24 1 958 0 1013 l-1 46 -104 1 c-58 0 -107 -3 -110 -6z"/>
<path d="M1912 1560 l0 -538 112 1 111 2 -1 165 c0 140 -7 357 -17 543 -2 26
-1 47 2 47 4 0 66 -168 140 -373 74 -204 139 -375 145 -379 6 -4 42 -6 81 -5
l70 2 54 150 c29 83 93 258 142 390 l88 240 -4 -90 c-2 -49 -7 -155 -11 -235
-5 -119 -8 -373 -5 -441 1 -15 15 -17 99 -17 53 0 104 2 112 4 13 3 15 71 15
534 0 463 -2 531 -15 534 -8 3 -74 4 -147 4 -111 -1 -133 -3 -139 -17 -3 -9
-35 -97 -69 -196 -142 -406 -186 -528 -193 -541 -5 -8 -60 133 -141 364 -74
207 -138 380 -143 383 -6 4 -72 7 -148 7 l-137 0 -1 -538z"/>
</g>
</svg>
